<svg width="70" height="30" viewBox="0 0 70 30" xmlns="http://www.w3.org/2000/svg">
  <!-- Burst Rifle (Tron aesthetic) -->
  <g fill="none" stroke-linejoin="round" stroke-linecap="round">
    <!-- Glow silhouette -->
    <path d="M6 11 H44 L50 9 H62 L66 15 L62 21 H50 L44 19 H24 L22 28 H12 L14 19 H6 Z"
          stroke="#36a6ff" stroke-width="4" opacity="0.18"/>

    <!-- Core body -->
    <path d="M6 11 H44 L50 9 H62 L66 15 L62 21 H50 L44 19 H24 L22 28 H12 L14 19 H6 Z"
          fill="#0b0f1a" stroke="#d6edff" stroke-width="1.6" opacity="0.95"/>

    <!-- Burst ports -->
    <rect x="50" y="12" width="10" height="2.8" rx="1.4" fill="#0b0f1a" stroke="#36a6ff" stroke-width="1.6" opacity="0.9"/>
    <rect x="50" y="15.8" width="10" height="2.8" rx="1.4" fill="#0b0f1a" stroke="#36a6ff" stroke-width="1.6" opacity="0.75"/>

    <!-- Energy spine -->
    <path d="M12 15 H42" stroke="#36a6ff" stroke-width="2.4" opacity="0.85"/>
    <path d="M12 15 H42" stroke="#36a6ff" stroke-width="6" opacity="0.08"/>

    <!-- Pulse indicator -->
    <circle cx="30" cy="15" r="2.0" fill="#36a6ff" opacity="0.75"/>
    <circle cx="30" cy="15" r="4.8" fill="none" stroke="#36a6ff" stroke-width="3.2" opacity="0.10"/>
  </g>
</svg>
