<svg width="70" height="40" viewBox="0 0 70 40" xmlns="http://www.w3.org/2000/svg">
  <!-- Flame Thrower (Tron aesthetic) -->
  <g fill="none" stroke-linejoin="round" stroke-linecap="round">
    <!-- Glow silhouette -->
    <path d="M8 14 H40 L46 11 H58 V23 H46 L40 20 H26 L24 37 H14 L16 20 H8 Z"
          stroke="#ff6a00" stroke-width="5" opacity="0.16"/>

    <!-- Core body -->
    <path d="M8 14 H40 L46 11 H58 V23 H46 L40 20 H26 L24 37 H14 L16 20 H8 Z"
          fill="#0b0f1a" stroke="#ffe1cc" stroke-width="1.8" opacity="0.95"/>

    <!-- Fuel canister ring -->
    <circle cx="36" cy="30" r="8.0" stroke="#ff6a00" stroke-width="2.6" opacity="0.9"/>
    <circle cx="36" cy="30" r="12.0" stroke="#ff6a00" stroke-width="4" opacity="0.10"/>

    <!-- Heat rails -->
    <path d="M12 18 H38" stroke="#ff6a00" stroke-width="2.4" opacity="0.75"/>
    <path d="M12 20 H38" stroke="#ff6a00" stroke-width="2.4" opacity="0.55"/>
    <path d="M12 19 H38" stroke="#ff6a00" stroke-width="7" opacity="0.08"/>

    <!-- Nozzle flame glyph -->
    <path d="M56 17 C54 18,54 20,56 21 C58 20,58 18,56 17 Z"
          fill="#ffd24d" opacity="0.85" stroke="#ffd24d" stroke-width="1.2"/>
  </g>
</svg>
