<svg width="80" height="40" viewBox="0 0 80 40" xmlns="http://www.w3.org/2000/svg">
  <!-- Rocket Launcher (Tron aesthetic) -->
  <g fill="none" stroke-linejoin="round" stroke-linecap="round">
    <!-- Glow silhouette -->
    <path d="M8 14 H46 L52 11 H62 L72 20 L62 29 H52 L46 26 H26 L22 37 H12 L16 26 H8 Z"
          stroke="#ff3b3b" stroke-width="5" opacity="0.16"/>

    <!-- Core body -->
    <path d="M8 14 H46 L52 11 H62 L72 20 L62 29 H52 L46 26 H26 L22 37 H12 L16 26 H8 Z"
          fill="#0b0f1a" stroke="#ffd1d1" stroke-width="1.8" opacity="0.95"/>

    <!-- Tube ring -->
    <circle cx="58" cy="20" r="7.4" stroke="#ff3b3b" stroke-width="2.6" opacity="0.9"/>
    <circle cx="58" cy="20" r="11.5" stroke="#ff3b3b" stroke-width="4" opacity="0.10"/>
    <path d="M54 20 H62" stroke="#ff3b3b" stroke-width="2.6" opacity="0.75"/>

    <!-- Charge rails -->
    <path d="M14 19 H42" stroke="#ff3b3b" stroke-width="2.4" opacity="0.75"/>
    <path d="M14 21 H42" stroke="#ff3b3b" stroke-width="2.4" opacity="0.55"/>
    <path d="M14 20 H42" stroke="#ff3b3b" stroke-width="7" opacity="0.08"/>

    <!-- Warning stripe -->
    <path d="M30 16 L36 24" stroke="#ffd24d" stroke-width="2.2" opacity="0.65"/>
    <path d="M36 16 L30 24" stroke="#ffd24d" stroke-width="2.2" opacity="0.65"/>
  </g>
</svg>
