<svg width="250" height="400" viewBox="0 0 250 400" xmlns="http://www.w3.org/2000/svg">
  <!-- Base Building -->
  <rect x="5" y="5" width="240" height="390" fill="#1a0814" stroke="#ff00ff" stroke-width="2" />
  
  <!-- Glow effect -->
  <rect x="5" y="5" width="240" height="390" fill="none" stroke="#ff00ff" stroke-width="6" opacity="0.3" rx="2" />
  <rect x="5" y="5" width="240" height="390" fill="none" stroke="#ff00ff" stroke-width="12" opacity="0.1" rx="4" />

  <!-- Square Windows -->
  <g fill="#ff00ff" opacity="0.6">
    <rect x="40" y="50" width="30" height="30" />
    <rect x="110" y="50" width="30" height="30" />
    <rect x="180" y="50" width="30" height="30" />
    
    <rect x="40" y="120" width="30" height="30" />
    <rect x="110" y="120" width="30" height="30" />
    <rect x="180" y="120" width="30" height="30" />
    
    <rect x="40" y="190" width="30" height="30" />
    <rect x="110" y="190" width="30" height="30" />
    <rect x="180" y="190" width="30" height="30" />
    
    <rect x="40" y="260" width="30" height="30" />
    <rect x="110" y="260" width="30" height="30" />
    <rect x="180" y="260" width="30" height="30" />
    
    <rect x="40" y="330" width="30" height="30" />
    <rect x="110" y="330" width="30" height="30" />
    <rect x="180" y="330" width="30" height="30" />
  </g>
</svg>