<svg width="200" height="600" viewBox="0 0 200 600" xmlns="http://www.w3.org/2000/svg">
  <!-- Base Building -->
  <rect x="5" y="5" width="190" height="590" fill="#08081a" stroke="#00ffff" stroke-width="2" />
  
  <!-- Glow effect -->
  <rect x="5" y="5" width="190" height="590" fill="none" stroke="#00ffff" stroke-width="6" opacity="0.3" rx="2" />
  <rect x="5" y="5" width="190" height="590" fill="none" stroke="#00ffff" stroke-width="12" opacity="0.1" rx="4" />

  <!-- Square Windows -->
  <g fill="#00ffff" opacity="0.6">
    <rect x="30" y="40" width="30" height="30" />
    <rect x="85" y="40" width="30" height="30" />
    <rect x="140" y="40" width="30" height="30" />
    
    <rect x="30" y="100" width="30" height="30" />
    <rect x="85" y="100" width="30" height="30" />
    <rect x="140" y="100" width="30" height="30" />
    
    <rect x="30" y="160" width="30" height="30" />
    <rect x="85" y="160" width="30" height="30" />
    <rect x="140" y="160" width="30" height="30" />
    
    <rect x="30" y="220" width="30" height="30" />
    <rect x="85" y="220" width="30" height="30" />
    <rect x="140" y="220" width="30" height="30" />
    
    <rect x="30" y="280" width="30" height="30" />
    <rect x="85" y="280" width="30" height="30" />
    <rect x="140" y="280" width="30" height="30" />
    
    <rect x="30" y="340" width="30" height="30" />
    <rect x="85" y="340" width="30" height="30" />
    <rect x="140" y="340" width="30" height="30" />

    <rect x="30" y="400" width="30" height="30" />
    <rect x="85" y="400" width="30" height="30" />
    <rect x="140" y="400" width="30" height="30" />

    <rect x="30" y="460" width="30" height="30" />
    <rect x="85" y="460" width="30" height="30" />
    <rect x="140" y="460" width="30" height="30" />
  </g>
</svg>